<?xml version="1.0" standalone="no"?>
<!DOCTYPE svg PUBLIC "-//W3C//DTD SVG 20010904//EN"
 "http://www.w3.org/TR/2001/REC-SVG-20010904/DTD/svg10.dtd">
<svg version="1.0" xmlns="http://www.w3.org/2000/svg"
 width="7200.000000pt" height="10800.000000pt" viewBox="0 0 7200.000000 10800.000000"
 preserveAspectRatio="xMidYMid meet">
<metadata>
Created by potrace 1.16, written by Peter Selinger 2001-2019
</metadata>
<g transform="translate(0.000000,10800.000000) scale(0.100000,-0.100000)"
fill="#000000" stroke="none">
<path d="M0 96450 l0 -11550 805 0 805 0 0 23 c0 13 5 28 12 35 9 9 739 12
3224 12 l3213 0 3 33 3 32 3222 3 3222 2 3 33 3 32 3223 3 3222 2 0 35 0 35
713 -2 712 -3 3 -32 c3 -30 6 -33 38 -33 32 0 34 -2 34 -34 0 -32 3 -35 33
-38 l32 -3 3 -72 3 -73 34 0 35 0 0 -105 0 -105 35 0 35 0 0 -70 c0 -66 1 -70
23 -70 41 0 51 -15 55 -84 4 -64 4 -65 36 -68 l31 -3 3 -102 3 -102 32 -3 32
-3 5 -70 5 -70 33 -3 32 -3 0 -70 0 -69 35 0 35 0 0 -105 c0 -97 1 -105 19
-105 45 0 51 -9 51 -81 l0 -69 34 0 c30 0 34 -4 40 -31 3 -17 6 -64 6 -105 l0
-73 33 -3 32 -3 3 -65 c3 -67 11 -80 50 -80 21 0 22 -4 22 -69 l0 -70 33 -3
32 -3 3 -102 c2 -93 4 -103 22 -103 44 0 50 -9 50 -81 l0 -69 35 0 35 0 0 -70
0 -70 34 0 c32 0 34 -2 40 -46 3 -26 6 -73 6 -104 0 -56 1 -57 33 -66 32 -10
32 -11 35 -76 l3 -67 32 -3 32 -3 3 -67 3 -67 32 -3 32 -3 3 -107 3 -108 34 0
35 0 0 -70 0 -70 35 0 35 0 0 -69 0 -70 32 -3 c39 -4 45 -21 47 -140 l1 -78
29 0 c35 0 41 -13 41 -85 0 -53 0 -54 33 -57 l32 -3 3 -107 3 -108 34 0 35 0
0 -70 0 -70 35 0 35 0 0 -69 0 -70 33 -3 32 -3 3 -107 3 -108 33 0 33 0 7 -70
c7 -69 8 -70 36 -70 34 0 40 -14 40 -86 0 -50 2 -54 23 -54 40 0 47 -18 47
-121 l0 -98 33 -3 32 -3 3 -67 3 -67 32 -3 32 -3 3 -72 3 -73 34 0 35 0 0
-105 0 -105 34 0 33 0 7 -70 c7 -64 9 -70 30 -70 36 0 46 -20 46 -86 l0 -63
33 -3 32 -3 3 -102 3 -102 32 -3 32 -3 5 -70 5 -70 33 -3 32 -3 0 -105 0 -104
35 0 35 0 0 -69 0 -70 33 -3 c31 -3 32 -5 35 -53 4 -84 9 -95 41 -95 37 0 41
-12 41 -120 l0 -89 33 -3 32 -3 3 -67 3 -67 34 -7 35 -6 0 -69 0 -69 35 0 35
0 0 -104 0 -105 33 -3 32 -3 3 -72 3 -73 34 0 35 0 0 -54 c0 -72 6 -86 40 -86
36 0 40 -12 40 -119 l0 -87 33 -9 c32 -10 32 -11 35 -77 l3 -67 32 -3 32 -3 3
-67 3 -67 32 -3 32 -3 3 -107 3 -108 34 0 35 0 0 -70 0 -70 35 0 35 0 0 -105
0 -105 28 0 c42 0 52 -17 52 -86 l0 -63 33 -3 32 -3 3 -67 3 -67 32 -3 32 -3
3 -107 3 -108 34 0 35 0 0 -70 0 -70 110 0 110 0 0 35 0 35 180 0 180 0 0 35
0 35 73 0 c39 0 102 3 140 7 62 5 67 8 67 29 0 13 9 28 19 34 11 6 89 10 180
10 l160 0 3 33 3 32 142 3 142 3 3 32 3 32 178 3 177 2 0 35 0 35 175 0 c166
0 175 1 175 19 0 50 3 51 151 51 l139 0 0 35 0 35 58 0 c33 0 114 3 180 7
l122 6 0 27 c0 16 7 30 16 34 9 3 71 6 140 6 l123 0 9 33 8 32 172 3 c161 2
172 4 172 21 0 50 4 51 150 51 l139 0 3 33 3 32 178 3 177 2 0 35 0 35 140 0
c131 0 140 1 140 19 0 51 0 51 186 51 l174 0 0 30 c0 19 7 33 19 40 11 5 76
10 145 10 l125 0 3 33 3 32 177 3 177 2 3 33 3 32 138 3 c127 2 137 4 137 21
0 51 1 51 185 51 l174 0 3 33 3 32 143 3 142 3 0 34 0 35 180 0 180 0 0 34 c0
43 10 46 163 46 115 0 117 0 117 23 0 44 14 47 191 47 l168 0 3 33 3 32 142 3
142 3 3 32 3 32 178 3 177 2 0 35 0 35 139 0 140 0 3 33 3 32 178 3 177 2 0
34 c0 30 4 34 31 40 17 3 98 6 180 6 l148 0 3 33 3 32 142 3 142 3 3 32 3 32
171 3 172 2 6 35 7 35 139 0 139 0 3 33 3 32 178 3 177 2 0 35 0 35 145 0 145
0 0 34 c0 44 8 46 198 46 152 0 152 0 152 23 0 42 16 47 156 47 l133 0 3 33 3
32 177 3 177 2 3 33 3 32 140 5 140 5 3 33 3 32 175 0 c165 0 174 1 174 19 0
50 3 51 151 51 l139 0 0 34 c0 30 4 34 31 40 17 3 98 6 180 6 l148 0 3 33 3
32 137 3 137 3 7 34 6 35 174 0 c165 0 174 1 174 19 0 50 3 51 150 51 l139 0
3 33 3 32 178 3 177 2 0 35 0 35 140 0 c138 0 140 0 140 23 0 50 8 52 190 56
167 3 170 3 170 25 0 41 17 46 156 46 l133 0 3 33 3 32 178 3 177 2 0 35 0 35
180 0 180 0 0 35 0 35 139 0 140 0 3 33 3 32 178 3 177 2 0 34 c0 32 2 34 46
40 26 3 91 6 145 6 l99 0 0 30 c0 17 1 31 3 32 1 1 81 4 177 7 l175 6 5 30 5
30 137 3 137 3 3 32 3 32 177 3 177 2 3 33 3 32 143 3 142 3 0 34 0 35 174 0
174 0 6 34 c6 32 8 33 68 40 33 3 96 6 139 6 l79 0 0 29 c0 17 6 31 16 35 9 3
89 6 179 6 l164 0 3 33 3 32 143 3 142 3 0 34 0 35 175 0 c166 0 175 1 175 19
0 50 3 51 150 51 l139 0 3 33 3 32 178 3 177 2 0 34 0 34 145 7 145 7 0 28 c0
16 7 30 16 34 9 3 87 6 175 6 l159 0 0 23 c0 42 16 47 156 47 l133 0 3 33 3
32 178 3 177 2 0 35 0 35 180 0 180 0 0 35 0 35 175 0 175 0 0 -35 c0 -33 2
-35 35 -35 33 0 35 -2 35 -35 0 -33 2 -35 34 -35 34 0 46 -13 46 -50 0 -14 9
-20 33 -22 28 -3 32 -7 35 -35 3 -28 7 -32 35 -35 28 -3 32 -7 35 -35 3 -28 8
-33 38 -39 31 -6 34 -9 34 -40 0 -32 2 -34 35 -34 33 0 35 -2 35 -35 0 -33 2
-35 35 -35 33 0 35 -2 35 -34 0 -33 2 -35 38 -38 34 -3 37 -6 40 -35 3 -28 7
-32 35 -35 28 -3 32 -7 35 -35 3 -28 7 -32 35 -35 28 -3 32 -7 35 -34 3 -28 8
-33 38 -38 31 -6 34 -10 34 -41 0 -33 2 -35 35 -35 33 0 35 -2 35 -35 0 -33 2
-35 34 -35 32 0 35 -3 38 -32 l3 -33 70 -5 70 -5 3 -32 c3 -28 7 -32 35 -35
28 -3 32 -7 35 -35 3 -26 8 -33 25 -33 33 0 45 -12 49 -45 3 -26 8 -30 36 -33
29 -3 32 -6 32 -38 0 -32 2 -34 35 -34 33 0 35 -2 35 -34 0 -33 2 -35 38 -38
34 -3 37 -6 40 -35 3 -28 7 -32 35 -35 28 -3 32 -7 35 -35 3 -28 7 -32 35 -35
28 -3 32 -7 35 -35 3 -28 7 -32 35 -35 28 -3 32 -7 35 -34 3 -28 8 -33 38 -38
31 -6 34 -10 34 -41 0 -33 2 -35 35 -35 33 0 35 -2 35 -34 0 -33 2 -35 38 -38
34 -3 37 -6 40 -35 3 -30 6 -33 38 -33 32 0 34 -2 34 -35 0 -33 2 -35 35 -35
33 0 35 -2 35 -35 0 -33 2 -35 35 -35 33 0 35 -2 35 -35 0 -34 1 -35 39 -35
21 0 53 -3 70 -6 27 -6 31 -10 31 -40 0 -32 2 -34 35 -34 31 0 35 -3 41 -34 5
-30 10 -35 38 -38 27 -3 31 -7 34 -35 3 -30 6 -33 38 -33 32 0 34 -2 34 -35 0
-33 2 -35 35 -35 33 0 35 -2 35 -34 0 -32 3 -35 33 -38 28 -3 32 -7 35 -35 3
-28 7 -32 35 -35 29 -3 32 -6 35 -40 3 -35 5 -37 40 -40 34 -3 37 -6 40 -35 3
-28 7 -32 35 -35 28 -3 32 -7 35 -35 3 -30 6 -33 38 -33 32 0 34 -2 34 -35 0
-33 2 -35 35 -35 33 0 35 -2 35 -34 0 -32 3 -35 33 -38 28 -3 32 -7 35 -35 3
-28 7 -32 35 -35 29 -3 32 -6 35 -40 3 -35 5 -37 40 -40 34 -3 37 -6 40 -35 3
-30 6 -33 38 -33 32 0 34 -2 34 -35 l0 -34 68 -3 67 -3 3 -32 c3 -28 7 -32 35
-35 28 -3 32 -7 35 -35 3 -28 7 -32 35 -35 28 -3 32 -7 35 -35 3 -29 7 -33 32
-33 31 0 50 -22 50 -59 0 -15 8 -20 33 -23 28 -3 32 -7 35 -35 3 -30 6 -33 38
-33 32 0 34 -2 34 -35 0 -33 2 -35 35 -35 33 0 35 -2 35 -35 0 -33 2 -35 35
-35 33 0 35 -2 35 -35 0 -33 2 -35 35 -35 33 0 35 -2 35 -35 0 -32 2 -35 30
-35 31 0 50 -22 50 -59 0 -17 6 -21 35 -21 33 0 35 -2 35 -35 0 -33 2 -35 35
-35 33 0 35 -2 35 -35 0 -33 2 -35 35 -35 33 0 35 -2 35 -35 0 -33 2 -35 35
-35 33 0 35 -2 35 -35 l0 -34 68 -3 67 -3 3 -32 c3 -27 8 -33 27 -33 30 0 55
-25 55 -55 0 -19 6 -24 33 -27 28 -3 32 -7 35 -35 3 -28 7 -32 35 -35 28 -3
32 -7 35 -35 3 -30 6 -33 38 -33 32 0 34 -2 34 -35 0 -33 2 -35 35 -35 33 0
35 -2 35 -35 0 -33 2 -35 35 -35 28 0 35 -4 35 -19 0 -32 11 -51 30 -51 37 0
50 -12 50 -46 0 -32 2 -34 35 -34 33 0 35 -2 35 -35 0 -33 2 -35 35 -35 33 0
35 -2 35 -35 0 -33 2 -35 35 -35 33 0 35 -2 35 -35 0 -33 2 -35 35 -35 33 0
35 -2 35 -35 0 -33 2 -35 34 -35 32 0 35 -3 38 -32 3 -29 7 -34 38 -38 31 -4
35 -9 38 -36 3 -28 8 -33 38 -38 31 -6 34 -10 34 -41 l0 -35 70 0 70 0 0 -35
c0 -33 2 -35 35 -35 33 0 35 -2 35 -35 0 -33 2 -35 35 -35 33 0 35 -2 35 -34
0 -32 3 -35 33 -38 26 -2 34 -9 41 -35 8 -26 16 -33 40 -35 26 -3 32 -8 34
-33 4 -33 16 -45 50 -45 19 0 22 -5 22 -35 0 -33 2 -35 35 -35 33 0 35 -2 35
-35 0 -33 2 -35 35 -35 33 0 35 -2 35 -35 0 -33 2 -35 35 -35 33 0 35 -2 35
-35 0 -33 2 -35 34 -35 34 0 46 -13 46 -50 0 -14 9 -20 33 -22 28 -3 32 -7 35
-34 3 -28 8 -33 38 -38 31 -6 34 -10 34 -41 0 -33 2 -35 35 -35 33 0 35 -2 35
-35 0 -33 2 -35 35 -35 33 0 35 -2 35 -35 0 -33 2 -35 35 -35 33 0 35 -2 35
-35 l0 -35 69 0 c72 0 81 -6 81 -51 0 -13 7 -19 23 -19 33 0 45 -12 49 -45 3
-26 8 -30 36 -33 29 -3 32 -6 32 -38 0 -32 2 -34 35 -34 33 0 35 -2 35 -35 0
-33 2 -35 35 -35 33 0 35 -2 35 -35 0 -33 2 -35 34 -35 34 0 46 -13 46 -50 0
-14 9 -20 33 -22 28 -3 32 -7 35 -35 3 -28 7 -32 35 -35 28 -3 32 -7 35 -35 2
-24 8 -33 22 -33 37 0 50 -12 50 -46 0 -32 2 -34 35 -34 33 0 35 -2 35 -35 0
-33 2 -35 35 -35 33 0 35 -2 35 -34 0 -33 2 -35 38 -38 34 -3 37 -6 40 -35 3
-28 7 -32 35 -35 28 -3 32 -7 35 -35 3 -28 7 -32 35 -35 28 -3 32 -7 35 -35 3
-28 7 -32 35 -35 29 -3 32 -6 35 -40 l3 -38 70 0 69 0 0 -35 c0 -33 2 -35 34
-35 31 0 34 -3 40 -35 6 -30 11 -35 35 -35 29 0 41 -15 41 -50 0 -14 9 -20 33
-22 28 -3 32 -7 35 -35 3 -28 7 -32 35 -35 28 -3 32 -7 35 -35 2 -24 8 -33 22
-33 37 0 50 -12 50 -46 0 -32 2 -34 35 -34 33 0 35 -2 35 -35 0 -33 2 -35 35
-35 31 0 35 -3 41 -34 5 -30 10 -35 38 -38 27 -3 31 -7 34 -35 3 -28 7 -32 35
-35 28 -3 32 -7 35 -35 3 -28 7 -32 35 -35 28 -3 32 -7 35 -35 3 -28 7 -32 35
-35 29 -3 32 -6 35 -40 3 -36 5 -38 38 -38 32 0 34 -2 34 -35 0 -33 2 -35 34
-35 34 0 46 -13 46 -50 0 -17 9 -19 68 -22 l67 -3 3 -32 c3 -28 7 -32 35 -35
28 -3 32 -7 35 -35 3 -28 7 -32 35 -35 28 -3 32 -7 35 -34 3 -28 8 -33 38 -38
31 -6 34 -10 34 -41 0 -33 2 -35 34 -35 31 0 34 -3 40 -34 6 -30 11 -35 39
-38 28 -3 32 -7 35 -35 3 -30 6 -33 38 -33 32 0 34 -2 34 -35 0 -33 2 -35 35
-35 33 0 35 -2 35 -35 0 -33 2 -35 35 -35 33 0 35 -2 35 -34 0 -32 3 -35 33
-38 29 -3 32 -6 35 -40 3 -36 5 -38 36 -38 30 0 34 -3 40 -34 6 -30 11 -35 39
-38 28 -3 32 -7 35 -35 l3 -33 70 0 69 0 0 35 c0 22 5 35 13 35 27 0 56 44 59
90 3 41 6 46 36 55 20 6 32 16 32 26 0 36 12 49 46 49 l34 0 0 70 0 70 35 0
c33 0 35 2 35 35 0 33 2 35 35 35 l34 0 3 67 c3 66 4 67 35 76 26 8 32 15 35
41 3 27 7 31 36 34 31 3 32 4 32 53 0 63 13 89 45 89 18 0 25 5 25 19 0 38 11
51 46 51 l33 0 3 68 3 67 32 3 c29 3 32 7 35 40 3 34 6 37 36 40 28 3 32 7 32
33 0 39 25 86 49 94 14 4 21 17 23 43 3 34 6 37 36 40 29 3 32 6 32 38 0 32 2
34 35 34 l35 0 0 49 c0 74 13 101 50 101 28 0 30 3 30 35 0 33 2 35 35 35 l34
0 3 68 3 67 33 3 c29 3 32 6 32 38 0 32 2 34 35 34 l34 0 3 67 c3 66 4 67 35
76 26 8 32 15 35 41 3 27 7 31 34 34 31 3 32 5 39 65 7 65 15 77 53 77 19 0
22 5 22 35 0 33 2 35 35 35 34 0 35 1 35 43 0 53 19 91 47 95 17 3 23 11 25
40 3 34 6 37 36 40 29 3 32 6 32 38 0 32 2 34 35 34 l34 0 3 68 3 67 32 3 c28
3 32 7 35 35 2 27 9 34 38 43 34 11 35 13 40 75 5 64 5 64 38 67 29 3 32 6 32
38 0 32 2 34 35 34 l34 0 3 68 3 67 33 3 c29 3 32 6 32 37 0 30 3 33 35 39 33
7 35 9 35 49 0 66 9 85 41 92 19 4 29 13 29 25 0 37 12 50 46 50 l34 0 0 54
c0 59 16 86 51 86 15 0 19 7 19 35 0 33 2 35 34 35 33 0 35 2 38 38 3 34 6 37
35 40 l32 3 3 67 3 67 33 3 c29 3 32 6 32 38 0 32 2 34 35 34 l35 0 0 54 c0
72 6 86 40 86 24 0 29 5 37 38 7 32 13 37 40 40 l32 3 3 67 3 67 33 3 c29 3
32 6 32 38 0 32 2 34 35 34 l35 0 0 54 c0 73 6 86 41 86 26 0 29 3 29 34 0 34
13 46 49 46 14 0 19 13 27 62 8 59 11 63 42 72 28 8 32 13 32 42 0 32 2 34 35
34 33 0 35 2 35 35 0 33 2 35 35 35 l35 0 0 69 c0 72 6 81 50 81 14 0 20 9 22
33 3 28 7 32 35 35 l32 3 3 67 3 67 32 3 c28 3 32 7 35 35 3 28 7 32 35 35 31
3 31 4 38 72 7 68 7 68 41 75 31 5 34 9 34 40 0 33 2 35 35 35 l34 0 3 68 3
67 33 3 c29 3 32 6 32 38 0 32 2 34 35 34 35 0 35 0 35 44 0 65 14 96 45 96
21 0 25 5 25 28 0 34 16 52 46 52 16 0 23 8 28 31 7 38 43 89 62 89 10 0 14
13 14 45 0 45 0 45 35 45 33 0 35 2 35 35 0 33 2 35 35 35 l35 0 0 69 c0 72 6
81 50 81 14 0 20 9 22 33 3 28 7 32 36 35 32 3 32 4 32 57 0 72 6 85 41 85 22
0 29 5 29 19 0 38 11 51 46 51 l34 0 0 70 0 69 35 7 c32 6 35 9 35 40 0 32 2
34 35 34 l35 0 0 51 c0 63 13 89 45 89 22 0 25 4 25 35 0 33 2 35 35 35 32 0
35 3 35 28 0 54 20 102 44 108 18 4 25 15 30 45 6 37 8 39 41 39 33 0 35 2 35
35 0 33 2 35 35 35 l35 0 0 70 0 70 35 0 c33 0 35 2 35 35 0 31 3 35 35 41
l35 6 0 57 c0 61 11 81 46 81 18 0 23 6 26 33 3 28 7 32 34 35 31 3 32 4 38
73 l7 69 35 0 c32 0 34 2 34 35 0 31 3 35 35 41 34 6 34 6 37 68 3 59 4 61 36
71 28 8 32 14 32 42 0 31 2 33 34 33 l33 0 7 61 c7 56 10 62 36 72 22 8 30 18
32 42 3 26 7 30 36 33 26 3 32 8 32 27 0 43 10 55 46 55 l34 0 0 70 0 70 35 0
c33 0 35 2 35 35 0 33 2 35 35 35 l35 0 0 70 0 70 34 0 c33 0 35 2 38 38 3 34
6 37 36 40 31 3 32 4 32 53 0 63 13 89 45 89 18 0 25 5 25 19 0 38 11 51 46
51 l33 0 3 68 3 67 32 3 c29 3 32 7 35 40 3 34 6 37 36 40 31 3 32 5 32 48 0
56 12 80 44 88 19 5 25 14 28 39 3 28 7 32 36 35 29 3 32 6 32 38 0 32 2 34
35 34 l35 0 0 59 c0 66 15 91 56 91 21 0 24 5 24 35 0 33 2 35 35 35 l34 0 3
68 3 67 33 3 c29 3 32 6 32 38 0 32 2 34 35 34 l34 0 3 67 c3 66 3 67 35 75
26 7 32 14 35 41 3 28 7 32 34 35 30 3 31 5 38 63 7 75 10 79 47 79 27 0 29 3
29 35 0 33 2 35 35 35 l35 0 0 58 c0 62 11 82 46 82 19 0 23 6 26 38 3 34 6
37 36 40 29 3 32 6 32 38 0 19 4 34 8 34 5 0 14 11 20 25 6 14 18 25 26 25 10
0 16 13 18 43 3 39 5 42 35 45 28 3 32 7 35 35 3 28 7 32 35 35 31 3 31 4 40
75 8 72 8 72 41 75 29 3 32 6 32 38 0 32 2 34 35 34 l34 0 3 68 3 67 33 3 c29
3 32 6 32 38 0 32 2 34 35 34 l35 0 0 58 c0 67 6 78 43 87 17 5 27 14 27 25 0
35 12 50 40 50 23 0 29 5 34 31 3 17 6 46 6 64 0 34 13 45 51 45 15 0 19 7 19
35 0 33 2 35 35 35 33 0 35 2 35 34 0 52 19 95 45 102 19 5 25 14 27 42 3 34
6 37 36 40 29 3 32 6 32 38 0 32 2 34 35 34 l35 0 0 54 c0 73 6 86 41 86 22 0
29 5 29 19 0 36 12 50 46 57 l33 6 3 67 3 66 33 3 c29 3 32 6 32 38 0 32 2 34
35 34 l34 0 3 68 3 67 33 3 c29 3 32 6 32 37 0 30 3 33 35 39 30 6 35 11 35
34 0 15 3 44 6 64 5 30 12 38 35 43 23 5 30 13 35 41 6 31 9 34 40 34 l34 0 0
50 c0 52 23 90 55 90 10 0 15 11 15 35 0 33 2 35 34 35 33 0 35 2 38 38 3 34
6 37 35 40 l32 3 3 67 3 67 32 3 c28 3 32 7 35 35 3 28 7 32 36 35 29 3 32 7
32 35 0 18 3 49 6 70 6 34 9 37 40 37 31 0 33 2 36 38 3 34 6 37 35 40 l32 3
3 67 3 67 33 3 c29 3 32 6 32 38 0 32 2 34 35 34 l35 0 0 54 c0 73 6 86 41 86
25 0 29 4 29 28 0 34 16 52 46 52 18 0 22 8 30 62 9 59 11 63 42 72 28 8 32
13 32 42 0 32 2 34 35 34 33 0 35 2 35 35 0 33 2 35 35 35 l35 0 0 69 c0 72 6
81 50 81 14 0 20 9 22 33 3 28 7 32 36 35 32 3 32 4 32 57 0 72 6 85 41 85 22
0 29 5 29 19 0 38 11 51 46 51 l34 0 0 69 0 69 34 6 c30 6 35 11 38 39 3 28 7
32 36 35 l32 3 0 58 c0 62 11 81 47 81 20 0 23 5 23 35 0 33 2 35 34 35 l33 0
7 61 c7 73 10 79 42 79 18 0 24 5 24 21 0 37 19 59 50 59 28 0 30 3 30 35 0
22 5 35 13 35 16 0 57 42 57 58 0 8 43 12 142 14 l143 3 5 30 5 30 172 3 171
2 6 35 7 35 174 0 c175 0 175 0 175 23 0 48 8 50 188 55 l170 5 5 27 c8 36 31
40 213 40 l144 0 0 25 c0 38 32 45 204 45 l154 0 5 29 c8 38 22 41 202 41
l151 0 11 30 c9 24 19 31 52 36 l41 7 0 10298 0 10299 -36000 0 -36000 0 0
-11550z"/>
<path d="M25680 25255 l0 -35 -3222 -2 -3223 -3 -3 -32 -3 -33 -3219 0 -3219
0 -3 -32 -3 -33 -1795 -6 c-987 -3 -2437 -7 -3222 -8 l-1428 -1 0 -29 c0 -21
-6 -30 -22 -35 -13 -3 -1439 -6 -3170 -6 l-3148 0 0 -12500 0 -12500 4889 0
4890 0 3 33 c3 28 7 32 36 35 29 3 32 6 32 38 0 32 2 34 35 34 33 0 35 2 35
33 0 17 3 49 6 69 6 33 10 38 34 38 22 0 28 6 36 38 8 32 13 37 42 40 32 3 32
4 32 55 0 62 6 73 43 82 23 6 27 12 27 41 0 32 2 34 35 34 33 0 35 2 35 35 0
33 2 35 35 35 l35 0 0 69 c0 72 6 81 50 81 14 0 20 9 22 33 3 28 7 32 36 35
29 3 32 7 32 35 0 18 3 49 6 70 6 34 9 37 40 37 32 0 34 2 34 35 0 33 2 35 35
35 l35 0 0 70 0 69 34 7 c30 5 35 10 38 38 3 27 7 31 36 34 l32 3 0 58 c0 61
11 81 46 81 18 0 23 6 26 32 3 29 7 33 34 36 30 3 31 5 40 70 9 66 9 67 42 70
30 3 32 6 32 43 0 38 1 39 35 39 32 0 35 2 35 31 0 35 34 89 56 89 10 0 14 13
14 45 0 45 0 45 35 45 33 0 35 2 35 35 0 31 3 35 35 41 l35 6 0 57 c0 62 11
81 47 81 16 0 23 6 23 19 0 38 11 51 46 51 l34 0 0 70 0 70 35 0 c33 0 35 2
35 35 0 31 3 35 35 41 l35 6 0 57 c0 61 11 81 46 81 18 0 23 6 26 32 3 29 7
33 34 36 30 3 31 5 38 63 7 73 10 79 42 79 18 0 24 5 24 23 0 33 12 45 45 49
28 3 30 6 37 58 6 53 25 80 55 80 9 0 13 14 13 40 0 39 1 40 35 40 33 0 35 2
35 35 0 33 2 35 35 35 l34 0 3 68 3 67 32 3 c29 3 32 7 35 40 3 34 6 37 36 40
31 3 32 5 32 47 0 68 14 95 50 95 28 0 30 3 30 35 0 33 2 35 35 35 l34 0 3 68
3 67 32 3 c29 3 32 7 35 40 3 34 6 37 36 40 32 3 32 4 32 57 0 57 16 85 50 85
14 0 20 9 22 32 3 29 7 33 36 36 27 3 32 7 32 30 0 15 5 44 11 65 8 30 16 39
40 44 25 5 29 10 29 38 0 34 13 45 51 45 15 0 19 7 19 35 0 33 2 35 35 35 l34
0 3 68 3 67 33 3 c29 3 32 6 32 38 0 32 2 34 35 34 l34 0 3 67 c3 66 3 67 36
77 23 6 32 15 32 30 0 32 12 44 45 48 29 3 30 5 35 68 5 65 5 65 38 68 29 3
32 6 32 38 0 32 2 34 35 34 l34 0 3 68 3 67 32 3 c29 3 32 7 35 40 3 33 6 37
34 40 31 3 32 5 38 63 7 55 10 61 37 71 18 6 29 17 29 28 0 35 12 50 41 50 24
0 29 5 35 35 6 32 9 35 40 35 l33 0 3 73 3 72 33 3 c29 3 32 6 32 38 0 32 2
34 35 34 l34 0 3 68 3 67 33 3 c29 3 32 6 32 38 0 32 2 34 35 34 l35 0 0 48
c0 72 8 91 44 100 25 7 32 14 34 40 3 29 6 32 37 32 l34 0 3 67 3 68 33 3 c29
3 32 6 32 38 0 32 2 34 35 34 l35 0 0 51 c0 62 13 89 45 89 20 0 24 5 27 38 3
34 6 37 36 40 28 3 32 7 32 33 0 18 6 32 17 36 33 13 51 42 58 92 7 50 8 51
41 51 32 0 34 2 34 34 0 34 13 46 50 46 17 0 19 9 22 67 l3 68 33 3 c29 3 32
6 32 38 0 32 2 34 35 34 l34 0 3 67 3 68 32 3 c28 3 32 7 35 35 2 26 9 33 35
40 30 9 32 13 38 71 8 64 16 76 53 76 19 0 22 5 22 35 0 33 2 35 35 35 l35 0
0 58 c0 63 11 82 47 82 20 0 23 5 23 35 0 33 2 35 34 35 33 0 33 1 39 51 6 52
29 89 54 89 7 0 13 11 13 24 0 42 11 56 41 56 22 0 29 5 29 19 0 38 11 51 46
51 l34 0 0 70 0 70 34 0 c33 0 35 2 38 38 3 34 6 37 35 40 l32 3 3 67 3 67 33
3 c29 3 32 6 32 38 0 32 2 34 35 34 l35 0 0 48 c0 75 8 92 41 92 23 0 29 5 29
21 0 37 19 59 50 59 29 0 29 1 32 62 3 61 4 63 36 73 28 8 32 14 32 42 0 31 2
33 35 33 32 0 35 3 35 29 0 63 12 94 42 105 23 8 28 16 28 42 0 32 13 44 50
44 14 0 20 9 22 32 3 29 7 33 36 36 30 3 32 6 32 41 0 21 3 53 6 70 6 27 10
31 40 31 32 0 34 2 34 35 0 33 2 35 35 35 l35 0 0 69 0 69 34 6 c30 6 35 11
38 39 3 28 7 32 36 35 32 3 32 4 32 57 0 71 6 85 40 85 25 0 29 4 32 33 3 28
7 32 34 35 30 3 31 5 40 70 9 66 10 67 41 70 29 3 32 7 35 40 3 34 6 37 35 40
32 3 32 4 35 60 3 53 5 58 35 72 27 12 33 21 33 48 0 30 2 32 35 32 33 0 35 2
35 35 0 33 2 35 35 35 l35 0 0 63 c0 67 10 87 46 87 18 0 23 6 26 33 3 29 6
32 41 35 l37 3 0 70 0 69 35 0 c33 0 35 2 35 35 0 33 2 35 35 35 l35 0 0 70 0
69 34 7 c30 5 35 10 38 38 3 27 7 31 36 34 31 3 32 4 32 53 0 62 13 89 45 89
20 0 24 6 27 33 3 29 6 32 41 35 l37 3 0 54 c0 71 6 85 40 85 26 0 29 4 32 38
3 34 6 37 36 40 29 3 32 6 32 38 0 22 5 34 13 34 30 0 57 45 57 93 l0 47 35 0
c33 0 35 2 35 35 0 31 3 35 35 41 34 6 35 7 35 56 0 65 13 88 50 88 28 0 30 3
30 35 0 33 2 35 35 35 l35 0 0 70 0 70 35 0 c33 0 35 2 35 35 0 31 3 35 35 41
34 6 34 6 37 68 3 59 4 61 35 70 26 8 33 16 35 40 3 27 8 31 34 34 30 3 31 5
40 70 9 64 10 67 39 72 25 4 31 10 33 37 3 28 7 32 35 35 30 3 32 6 39 51 7
52 19 73 48 82 13 4 20 17 22 43 3 34 6 37 36 40 29 3 32 6 32 38 0 32 2 34
35 34 l34 0 3 68 3 67 32 3 c29 3 32 7 35 40 3 33 6 37 35 40 31 3 32 5 38 60
9 79 11 82 45 82 28 0 30 3 30 35 0 33 2 35 35 35 l34 0 3 68 3 67 33 3 c29 3
32 6 32 37 0 34 13 45 51 45 16 0 19 7 19 43 0 67 9 87 41 94 23 4 28 11 31
37 3 27 7 31 35 34 29 3 32 6 38 54 7 51 32 88 60 88 10 0 15 10 15 34 0 35
13 46 51 46 15 0 19 7 19 35 0 33 2 35 35 35 l34 0 3 68 3 67 33 3 c29 3 32 6
32 38 0 32 2 34 35 34 l35 0 0 58 c0 67 6 78 42 87 21 5 29 15 34 41 6 31 10
34 40 34 l33 0 3 68 3 67 33 3 c29 3 32 6 32 38 0 32 2 34 35 34 l35 0 0 54
c0 72 6 86 40 86 26 0 29 4 32 38 3 33 6 37 34 40 31 3 32 5 38 63 7 55 10 61
36 70 21 8 30 19 34 45 6 31 10 34 41 34 33 0 35 2 35 35 0 33 2 35 35 35 l34
0 3 73 3 72 33 3 c29 3 32 6 32 38 0 32 2 34 35 34 l34 0 3 68 3 67 32 3 c28
3 32 7 35 35 3 28 7 32 34 35 31 3 31 4 37 69 7 69 16 83 55 83 19 0 22 5 22
35 0 33 2 35 35 35 l34 0 3 68 3 67 33 3 c29 3 32 6 32 38 0 32 2 34 35 34 35
0 35 0 35 44 0 65 14 96 44 96 21 0 25 5 28 38 3 34 6 37 36 40 28 3 32 7 32
33 0 19 6 32 18 36 41 15 62 47 62 96 l0 47 35 0 c33 0 35 2 35 35 0 31 3 35
35 41 l34 6 3 67 3 66 33 3 c29 3 32 6 32 38 0 32 2 34 35 34 l35 0 0 54 c0
72 6 86 40 86 25 0 29 4 32 33 3 28 8 33 41 41 l37 10 0 62 c0 64 7 74 51 74
15 0 19 7 19 35 0 33 2 35 35 35 l35 0 0 51 c0 63 13 89 45 89 22 0 25 4 25
35 0 33 2 35 35 35 32 0 35 2 35 30 0 38 24 86 49 99 11 6 21 26 25 51 6 38 8
40 41 40 33 0 35 2 35 35 0 33 2 35 35 35 l35 0 0 70 0 70 34 0 c33 0 35 2 38
38 3 34 6 37 35 40 l32 3 3 67 3 67 32 3 c28 3 32 7 35 35 3 28 7 32 36 35 29
3 32 7 32 35 0 18 3 49 6 70 6 34 9 37 40 37 31 0 33 2 36 38 3 34 6 37 35 40
32 3 32 3 35 65 3 60 4 62 36 72 28 8 32 14 32 42 0 31 2 33 35 33 32 0 35 3
35 28 0 55 19 100 45 106 19 5 25 13 25 34 0 34 16 52 46 52 18 0 23 6 26 33
3 27 7 32 33 35 39 5 45 15 45 85 l0 57 35 0 c33 0 35 2 35 35 0 33 2 35 35
35 l35 0 0 69 0 69 34 6 c30 6 35 11 38 39 3 28 7 32 36 35 l32 3 0 58 c0 61
11 81 46 81 18 0 23 6 26 33 3 28 7 32 35 35 31 3 32 5 38 60 9 79 11 82 44
82 27 0 30 3 33 38 3 34 6 37 36 40 30 3 32 6 32 42 0 55 15 86 44 94 22 5 26
12 26 41 0 33 2 35 35 35 33 0 35 2 35 35 0 33 2 35 35 35 l35 0 0 63 c0 68
10 87 47 87 17 0 23 7 29 35 6 32 9 35 40 35 l34 0 0 70 0 70 35 0 c33 0 35 2
35 35 0 33 2 35 35 35 l34 0 3 68 c3 66 4 67 35 76 26 8 33 16 35 40 3 27 7
31 36 34 30 3 32 5 33 45 2 69 12 92 42 95 21 3 28 10 33 38 6 31 9 34 40 34
l34 0 0 54 c0 72 6 86 40 86 26 0 29 4 32 38 3 34 6 37 36 40 29 3 32 6 32 38
0 32 2 34 35 34 l34 0 3 68 3 67 33 3 c29 3 32 6 32 37 0 31 3 35 34 40 32 7
33 8 42 73 9 66 9 67 42 70 29 3 32 6 32 38 0 32 2 34 35 34 l34 0 3 68 3 67
33 3 c29 3 32 6 32 37 0 30 3 33 35 39 35 7 35 7 35 61 0 57 16 85 50 85 14 0
20 9 22 33 3 28 7 32 35 35 30 3 31 5 38 65 8 65 16 77 53 77 19 0 22 5 22 35
0 33 2 35 35 35 34 0 35 1 35 40 0 22 5 40 10 40 6 0 10 7 10 15 0 9 11 20 24
27 20 8 26 20 28 52 3 38 5 41 36 44 29 3 32 6 32 38 0 32 2 34 35 34 l35 0 0
54 c0 73 6 86 41 86 25 0 29 4 29 28 0 35 16 52 52 52 27 0 27 1 30 68 l3 67
33 3 c29 3 32 6 32 38 0 32 2 34 35 34 l34 0 3 68 3 67 33 3 c29 3 32 6 32 37
0 34 13 45 51 45 14 0 19 7 19 28 0 15 3 44 7 65 5 31 11 39 33 44 22 4 30 12
35 39 5 31 9 34 40 34 l35 0 0 50 c0 52 23 90 55 90 10 0 15 10 15 34 0 35 13
46 51 46 15 0 19 7 19 35 0 33 2 35 35 35 l34 0 3 68 3 67 32 3 c28 3 32 7 35
35 3 28 7 32 36 35 31 3 32 5 32 50 0 75 8 91 46 98 31 6 34 10 34 40 0 32 2
34 35 34 l34 0 3 68 3 67 33 3 c29 3 32 6 32 38 0 32 2 34 35 34 l35 0 0 54
c0 72 6 86 40 86 26 0 29 4 32 38 3 33 6 37 34 40 30 3 32 6 38 55 8 63 13 72
49 81 23 5 27 12 27 41 0 33 2 35 35 35 33 0 35 2 35 35 0 33 2 35 35 35 l35
0 0 69 c0 72 6 81 50 81 14 0 20 9 22 33 3 28 7 32 35 35 l32 3 3 67 3 67 32
3 c28 3 32 7 35 35 3 28 7 33 38 37 l35 5 3 67 3 67 34 7 c32 6 35 9 35 40 l0
34 -720 0 -720 0 0 -35z"/>
</g>
</svg>
